<svg width="761" height="93" viewBox="0 0 761 93" fill="none" xmlns="http://www.w3.org/2000/svg">
<path d="M18.3039 92.1599C14.9759 92.1599 11.9039 91.3492 9.08789 89.7279C6.27189 88.0212 4.05322 85.8026 2.43189 83.0719C0.810558 80.2559 -0.000109196 77.1412 -0.000109196 73.7279V65.9199H18.4319V72.8319C18.4319 73.0879 18.4746 73.3012 18.5599 73.4719C18.7306 73.5572 18.9012 73.5999 19.0719 73.5999H72.7039C72.8746 73.5999 73.0452 73.5572 73.2159 73.4719C73.3866 73.3012 73.4719 73.0879 73.4719 72.8319V56.0639C73.4719 55.8932 73.3866 55.7652 73.2159 55.6799C73.0452 55.5092 72.8746 55.4239 72.7039 55.4239H18.3039C14.9759 55.4239 11.9039 54.6132 9.08789 52.9919C6.27189 51.2852 4.05322 49.0239 2.43189 46.2079C0.810558 43.3919 -0.000109196 40.3199 -0.000109196 36.9919V18.4319C-0.000109196 15.0186 0.810558 11.9466 2.43189 9.21591C4.05322 6.39991 6.27189 4.18124 9.08789 2.55991C11.9039 0.853241 14.9759 -9.15527e-05 18.3039 -9.15527e-05H73.7279C77.0559 -9.15527e-05 80.0852 0.853241 82.8159 2.55991C85.6319 4.18124 87.8932 6.39991 89.5999 9.21591C91.3066 11.9466 92.1599 15.0186 92.1599 18.4319V26.2399H73.4719V19.3279C73.4719 19.0719 73.3866 18.9012 73.2159 18.8159C73.0452 18.6452 72.8746 18.5599 72.7039 18.5599H19.0719C18.9012 18.5599 18.7306 18.6452 18.5599 18.8159C18.4746 18.9012 18.4319 19.0719 18.4319 19.3279V36.0959C18.4319 36.2666 18.4746 36.4372 18.5599 36.6079C18.7306 36.6932 18.9012 36.7359 19.0719 36.7359H73.7279C77.0559 36.7359 80.0852 37.5892 82.8159 39.2959C85.6319 40.9172 87.8932 43.1359 89.5999 45.9519C91.3066 48.7679 92.1599 51.8399 92.1599 55.1679V73.7279C92.1599 77.1412 91.3066 80.2559 89.5999 83.0719C87.8932 85.8026 85.6319 88.0212 82.8159 89.7279C80.0852 91.3492 77.0559 92.1599 73.7279 92.1599H18.3039ZM141.078 92.1599V57.7279L98.4539 -9.15527e-05H120.342L150.294 37.6319L180.118 -9.15527e-05H202.262L159.638 57.8559V92.1599H141.078ZM209.131 92.1599V-9.15527e-05H228.715L282.603 64.2559V-9.15527e-05H301.291V92.1599H281.707L227.563 27.6479V92.1599H209.131ZM315.759 92.1599V-9.15527e-05H334.319V36.7359H354.159L384.879 -9.15527e-05H404.591V5.88791L370.799 46.0799L404.591 86.2719V92.1599H384.879L354.159 55.4239H334.319V92.1599H315.759ZM414.762 92.1599V18.4319C414.762 15.0186 415.573 11.9466 417.194 9.21591C418.901 6.39991 421.119 4.18124 423.85 2.55991C426.666 0.853241 429.781 -9.15527e-05 433.194 -9.15527e-05H488.362C491.775 -9.15527e-05 494.847 0.853241 497.578 2.55991C500.394 4.18124 502.655 6.39991 504.362 9.21591C506.069 11.9466 506.922 15.0186 506.922 18.4319V92.1599H488.234V61.8239H433.194V92.1599H414.762ZM433.194 43.3919H488.234V19.3279C488.234 19.0719 488.149 18.9012 487.978 18.8159C487.893 18.6452 487.722 18.5599 487.466 18.5599H433.962C433.706 18.5599 433.493 18.6452 433.322 18.8159C433.237 18.9012 433.194 19.0719 433.194 19.3279V43.3919ZM518.946 92.1599V-9.15527e-05H537.25V92.1599H518.946ZM549.009 92.1599V-9.15527e-05H567.441V36.7359H624.657V-9.15527e-05H643.089V92.1599H624.657V55.4239H567.441V92.1599H549.009ZM730.46 92.1599V75.7759L749.66 72.8319V73.5999H760.412V92.1599H730.46ZM675.932 92.1599C672.519 92.1599 669.404 91.3492 666.588 89.7279C663.857 88.0212 661.639 85.8026 659.932 83.0719C658.311 80.2559 657.5 77.1412 657.5 73.7279V18.4319C657.5 15.0186 658.311 11.9466 659.932 9.21591C661.639 6.39991 663.857 4.18124 666.588 2.55991C669.404 0.853241 672.519 -9.15527e-05 675.932 -9.15527e-05H731.228C734.556 -9.15527e-05 737.585 0.853241 740.316 2.55991C743.132 4.18124 745.393 6.39991 747.1 9.21591C748.807 11.9466 749.66 15.0186 749.66 18.4319V73.7279C749.66 77.1412 748.807 80.2559 747.1 83.0719C745.393 85.8026 743.132 88.0212 740.316 89.7279C737.585 91.3492 734.556 92.1599 731.228 92.1599H675.932ZM676.7 73.5999H730.204C730.46 73.5999 730.631 73.5572 730.716 73.4719C730.887 73.3012 730.972 73.0879 730.972 72.8319V19.3279C730.972 19.0719 730.887 18.9012 730.716 18.8159C730.631 18.6452 730.46 18.5599 730.204 18.5599H676.7C676.444 18.5599 676.231 18.6452 676.06 18.8159C675.975 18.9012 675.932 19.0719 675.932 19.3279V72.8319C675.932 73.0879 675.975 73.3012 676.06 73.4719C676.231 73.5572 676.444 73.5999 676.7 73.5999Z" fill="white"/>
</svg>
